{"title":"[MARATHI] Chal Atap Laukar - Drama x264 MP3 [TMB]","uid":8598501,"size":533992724,"categoryP":"video","categoryS":"movies","magnet":"?xt=urn:btih:56f4d64c0c63f59d916825ec80e55514754cc1c1&amp;dn=%5BMARATHI%5D+Chal+Atap+Laukar+-+Drama+x264+MP3+%5BTMB%5D&amp;tr=udp%3A%2F%2Ftracker.openbittorrent.com%3A80&amp;tr=udp%3A%2F%2Fopen.demonii.com%3A1337&amp;tr=udp%3A%2F%2Ftracker.coppersurfer.tk%3A6969&amp;tr=udp%3A%2F%2Fexodus.desync.com%3A6969","seeders":0,"leechers":1,"uploader":"SJonam","files":1,"time":1371821819,"description":" &lt;a href=&quot;http://i1306.photobucket.com/albums/s570/zyx55e/44_zpsc46e809d.gif&quot; rel=&quot;nofollow&quot; target=&quot;_NEW&quot;&gt;http://i1306.photobucket.com/albums/s570/zyx55e/44_zpsc46e809d.gif&lt;/a&gt; &lt;a href=&quot;\nhttp://desibbrg.org/images/38937966743359904891.png&quot; rel=&quot;nofollow&quot; target=&quot;_NEW&quot;&gt;\nhttp://desibbrg.org/images/38937966743359904891.png&lt;/a&gt; &lt;a href=&quot;\nhttp://desibbrg.org/images/50530194665790346297.png&quot; rel=&quot;nofollow&quot; target=&quot;_NEW&quot;&gt;\nhttp://desibbrg.org/images/50530194665790346297.png&lt;/a&gt; &lt;a href=&quot;\nhttp://desibbrg.org/images/03379335841167495485.png&quot; rel=&quot;nofollow&quot; target=&quot;_NEW&quot;&gt;\nhttp://desibbrg.org/images/03379335841167495485.png&lt;/a&gt; &lt;a href=&quot;\nhttp://desibbrg.org/images/39831182448977077735.png&quot; rel=&quot;nofollow&quot; target=&quot;_NEW&quot;&gt;\nhttp://desibbrg.org/images/39831182448977077735.png&lt;/a&gt; &lt;a href=&quot;\nhttp://desibbrg.org/images/72598576114507973919.png&quot; rel=&quot;nofollow&quot; target=&quot;_NEW&quot;&gt;\nhttp://desibbrg.org/images/72598576114507973919.png&lt;/a&gt;\n &lt;a href=&quot;\nhttp://i1306.photobucket.com/albums/s570/zyx55e/oie_11162011MOJeDGQI_zpsc25b2b81.gif&quot; rel=&quot;nofollow&quot; target=&quot;_NEW&quot;&gt;\nhttp://i1306.photobucket.com/albums/s570/zyx55e/oie_11162011MOJeDGQI_zpsc25b2b81.gif&lt;/a&gt;\nCast n Crew - \nDirected by Vivek Lagu \nVideo Director by Mangesh Kadam.\nArtist :- Atul Parchure, Vivek Lagu, Atisha Naik, Radhika Ingle, Hrudaynath Rane, Raja Bapat, Milind Nimbalkar and Savita Maalpekar\n\nWriter :- Vivek Lagu\n\nMedia Info - \nGeneral\nComplete name                  : Chal Atap Laukar - Drama x264 MP3 [TMB].avi\nFormat                         : AVI\nFormat/Info                    : Audio Video Interleave\nFile size                      : 509 MiB\nDuration                       : 1h 46mn\nOverall bit rate               : 669 Kbps\nWriting application            : Lavf54.63.104\n\nVideo\nFormat                         : AVC\nFormat/Info                    : Advanced Video Codec\nFormat profile                 : &lt;a class=&quot;__cf_email__&quot; href=&quot;/cdn-cgi/l/email-protection&quot; data-cfemail=&quot;3b73525c537b7708150b&quot;&gt;[email&amp;#160;protected]&lt;/a&gt;&lt;script cf-hash='f9e31' type=&quot;text/javascript&quot;&gt;\n/* &lt;![CDATA[ */!function(){try{var t=&quot;currentScript&quot;in document?document.currentScript:function(){for(var t=document.getElementsByTagName(&quot;script&quot;),e=t.length;e--;)if(t[e].getAttribute(&quot;cf-hash&quot;))return t[e]}();if(t&amp;&amp;t.previousSibling){var e,r,n,i,c=t.previousSibling,a=c.getAttribute(&quot;data-cfemail&quot;);if(a){for(e=&quot;&quot;,r=parseInt(a.substr(0,2),16),n=2;a.length-n;n+=2)i=parseInt(a.substr(n,2),16)^r,e+=String.fromCharCode(i);e=document.createTextNode(e),c.parentNode.replaceChild(e,c)}}}catch(u){}}();/* ]]&gt; */&lt;/script&gt;\nFormat settings, CABAC         : Yes\nFormat settings, ReFrames      : 1 frame\nCodec ID                       : H264\nDuration                       : 1h 46mn\nBit rate                       : 402 Kbps\nWidth                          : 640 pixels\nHeight                         : 480 pixels\nDisplay aspect ratio           : 4:3\nFrame rate mode                : Variable\nFrame rate                     : 25.000 fps\nColor space                    : YUV\nChroma subsampling             : 4:2:0\nBit depth                      : 8 bits\nScan type                      : Progressive\nBits/(Pixel*Frame)             : 0.052\nStream size                    : 305 MiB (60%)\nWriting library                : x264 core 129\n\nAudio\nFormat                         : MPEG Audio\nFormat version                 : Version 1\nFormat profile                 : Layer 3\nMode                           : Joint stereo\nMode extension                 : MS Stereo\nCodec ID                       : 55\nCodec ID/Hint                  : MP3\nDuration                       : 1h 46mn\nBit rate mode                  : Constant\nBit rate                       : 256 Kbps\nChannel(s)                     : 2 channels\nSampling rate                  : 44.1 KHz\nCompression mode               : Lossy\nStream size                    : 195 MiB (38%)\nAlignment                      : Aligned on interleaves\nInterleave, duration           : 26 ms (0.65 video frame)\n\nRipper : Manojvb\n\nSeeding 24x7... Extreme Seeding...\n\n\nEnjoy!\n","torrent":{"xt":"urn:btih:56f4d64c0c63f59d916825ec80e55514754cc1c1","amp;dn":"%5BMARATHI%5D+Chal+Atap+Laukar+-+Drama+x264+MP3+%5BTMB%5D","amp;tr":["udp%3A%2F%2Ftracker.openbittorrent.com%3A80","udp%3A%2F%2Fopen.demonii.com%3A1337","udp%3A%2F%2Ftracker.coppersurfer.tk%3A6969","udp%3A%2F%2Fexodus.desync.com%3A6969"],"infoHash":"56f4d64c0c63f59d916825ec80e55514754cc1c1","infoHashBuffer":{"type":"Buffer","data":[86,244,214,76,12,99,245,157,145,104,37,236,128,229,85,20,117,76,193,193]},"announce":[],"urlList":[]}}